<?xml version="1.0" encoding="utf-8" standalone="no"?>
<!DOCTYPE svg PUBLIC "-//W3C//DTD SVG 1.1//EN"
  "http://www.w3.org/Graphics/SVG/1.1/DTD/svg11.dtd">
<!-- Created with matplotlib (https://matplotlib.org/) -->
<svg height="277.314375pt" version="1.1" viewBox="0 0 383.971059 277.314375" width="383.971059pt" xmlns="http://www.w3.org/2000/svg" xmlns:xlink="http://www.w3.org/1999/xlink">
 <metadata>
  <rdf:RDF xmlns:cc="http://creativecommons.org/ns#" xmlns:dc="http://purl.org/dc/elements/1.1/" xmlns:rdf="http://www.w3.org/1999/02/22-rdf-syntax-ns#">
   <cc:Work>
    <dc:type rdf:resource="http://purl.org/dc/dcmitype/StillImage"/>
    <dc:date>2021-03-20T16:37:27.304170</dc:date>
    <dc:format>image/svg+xml</dc:format>
    <dc:creator>
     <cc:Agent>
      <dc:title>Matplotlib v3.3.4, https://matplotlib.org/</dc:title>
     </cc:Agent>
    </dc:creator>
   </cc:Work>
  </rdf:RDF>
 </metadata>
 <defs>
  <style type="text/css">*{stroke-linecap:butt;stroke-linejoin:round;}</style>
 </defs>
 <g id="figure_1">
  <g id="patch_1">
   <path d="M 0 277.314375 
L 383.971059 277.314375 
L 383.971059 0 
L 0 0 
z
" style="fill:none;"/>
  </g>
  <g id="axes_1">
   <g id="patch_2">
    <path d="M 40.603125 239.758125 
L 375.403125 239.758125 
L 375.403125 22.318125 
L 40.603125 22.318125 
z
" style="fill:#ffffff;"/>
   </g>
   <g id="matplotlib.axis_1">
    <g id="xtick_1">
     <g id="line2d_1">
      <path clip-path="url(#p7339af1ce6)" d="M 51.83482 239.758125 
L 51.83482 22.318125 
" style="fill:none;stroke:#b0b0b0;stroke-linecap:square;stroke-width:0.8;"/>
     </g>
     <g id="line2d_2">
      <defs>
       <path d="M 0 0 
L 0 3.5 
" id="me3b950dd70" style="stroke:#000000;stroke-width:0.8;"/>
      </defs>
      <g>
       <use style="stroke:#000000;stroke-width:0.8;" x="51.83482" xlink:href="#me3b950dd70" y="239.758125"/>
      </g>
     </g>
     <g id="text_1">
      <!-- 0 -->
      <g transform="translate(48.65357 254.356562)scale(0.1 -0.1)">
       <defs>
        <path d="M 31.78125 66.40625 
Q 24.171875 66.40625 20.328125 58.90625 
Q 16.5 51.421875 16.5 36.375 
Q 16.5 21.390625 20.328125 13.890625 
Q 24.171875 6.390625 31.78125 6.390625 
Q 39.453125 6.390625 43.28125 13.890625 
Q 47.125 21.390625 47.125 36.375 
Q 47.125 51.421875 43.28125 58.90625 
Q 39.453125 66.40625 31.78125 66.40625 
z
M 31.78125 74.21875 
Q 44.046875 74.21875 50.515625 64.515625 
Q 56.984375 54.828125 56.984375 36.375 
Q 56.984375 17.96875 50.515625 8.265625 
Q 44.046875 -1.421875 31.78125 -1.421875 
Q 19.53125 -1.421875 13.0625 8.265625 
Q 6.59375 17.96875 6.59375 36.375 
Q 6.59375 54.828125 13.0625 64.515625 
Q 19.53125 74.21875 31.78125 74.21875 
z
" id="DejaVuSans-48"/>
       </defs>
       <use xlink:href="#DejaVuSans-48"/>
      </g>
     </g>
    </g>
    <g id="xtick_2">
     <g id="line2d_3">
      <path clip-path="url(#p7339af1ce6)" d="M 113.640818 239.758125 
L 113.640818 22.318125 
" style="fill:none;stroke:#b0b0b0;stroke-linecap:square;stroke-width:0.8;"/>
     </g>
     <g id="line2d_4">
      <g>
       <use style="stroke:#000000;stroke-width:0.8;" x="113.640818" xlink:href="#me3b950dd70" y="239.758125"/>
      </g>
     </g>
     <g id="text_2">
      <!-- 2000 -->
      <g transform="translate(100.915818 254.356562)scale(0.1 -0.1)">
       <defs>
        <path d="M 19.1875 8.296875 
L 53.609375 8.296875 
L 53.609375 0 
L 7.328125 0 
L 7.328125 8.296875 
Q 12.9375 14.109375 22.625 23.890625 
Q 32.328125 33.6875 34.8125 36.53125 
Q 39.546875 41.84375 41.421875 45.53125 
Q 43.3125 49.21875 43.3125 52.78125 
Q 43.3125 58.59375 39.234375 62.25 
Q 35.15625 65.921875 28.609375 65.921875 
Q 23.96875 65.921875 18.8125 64.3125 
Q 13.671875 62.703125 7.8125 59.421875 
L 7.8125 69.390625 
Q 13.765625 71.78125 18.9375 73 
Q 24.125 74.21875 28.421875 74.21875 
Q 39.75 74.21875 46.484375 68.546875 
Q 53.21875 62.890625 53.21875 53.421875 
Q 53.21875 48.921875 51.53125 44.890625 
Q 49.859375 40.875 45.40625 35.40625 
Q 44.1875 33.984375 37.640625 27.21875 
Q 31.109375 20.453125 19.1875 8.296875 
z
" id="DejaVuSans-50"/>
       </defs>
       <use xlink:href="#DejaVuSans-50"/>
       <use x="63.623047" xlink:href="#DejaVuSans-48"/>
       <use x="127.246094" xlink:href="#DejaVuSans-48"/>
       <use x="190.869141" xlink:href="#DejaVuSans-48"/>
      </g>
     </g>
    </g>
    <g id="xtick_3">
     <g id="line2d_5">
      <path clip-path="url(#p7339af1ce6)" d="M 175.446816 239.758125 
L 175.446816 22.318125 
" style="fill:none;stroke:#b0b0b0;stroke-linecap:square;stroke-width:0.8;"/>
     </g>
     <g id="line2d_6">
      <g>
       <use style="stroke:#000000;stroke-width:0.8;" x="175.446816" xlink:href="#me3b950dd70" y="239.758125"/>
      </g>
     </g>
     <g id="text_3">
      <!-- 4000 -->
      <g transform="translate(162.721816 254.356562)scale(0.1 -0.1)">
       <defs>
        <path d="M 37.796875 64.3125 
L 12.890625 25.390625 
L 37.796875 25.390625 
z
M 35.203125 72.90625 
L 47.609375 72.90625 
L 47.609375 25.390625 
L 58.015625 25.390625 
L 58.015625 17.1875 
L 47.609375 17.1875 
L 47.609375 0 
L 37.796875 0 
L 37.796875 17.1875 
L 4.890625 17.1875 
L 4.890625 26.703125 
z
" id="DejaVuSans-52"/>
       </defs>
       <use xlink:href="#DejaVuSans-52"/>
       <use x="63.623047" xlink:href="#DejaVuSans-48"/>
       <use x="127.246094" xlink:href="#DejaVuSans-48"/>
       <use x="190.869141" xlink:href="#DejaVuSans-48"/>
      </g>
     </g>
    </g>
    <g id="xtick_4">
     <g id="line2d_7">
      <path clip-path="url(#p7339af1ce6)" d="M 237.252813 239.758125 
L 237.252813 22.318125 
" style="fill:none;stroke:#b0b0b0;stroke-linecap:square;stroke-width:0.8;"/>
     </g>
     <g id="line2d_8">
      <g>
       <use style="stroke:#000000;stroke-width:0.8;" x="237.252813" xlink:href="#me3b950dd70" y="239.758125"/>
      </g>
     </g>
     <g id="text_4">
      <!-- 6000 -->
      <g transform="translate(224.527813 254.356562)scale(0.1 -0.1)">
       <defs>
        <path d="M 33.015625 40.375 
Q 26.375 40.375 22.484375 35.828125 
Q 18.609375 31.296875 18.609375 23.390625 
Q 18.609375 15.53125 22.484375 10.953125 
Q 26.375 6.390625 33.015625 6.390625 
Q 39.65625 6.390625 43.53125 10.953125 
Q 47.40625 15.53125 47.40625 23.390625 
Q 47.40625 31.296875 43.53125 35.828125 
Q 39.65625 40.375 33.015625 40.375 
z
M 52.59375 71.296875 
L 52.59375 62.3125 
Q 48.875 64.0625 45.09375 64.984375 
Q 41.3125 65.921875 37.59375 65.921875 
Q 27.828125 65.921875 22.671875 59.328125 
Q 17.53125 52.734375 16.796875 39.40625 
Q 19.671875 43.65625 24.015625 45.921875 
Q 28.375 48.1875 33.59375 48.1875 
Q 44.578125 48.1875 50.953125 41.515625 
Q 57.328125 34.859375 57.328125 23.390625 
Q 57.328125 12.15625 50.6875 5.359375 
Q 44.046875 -1.421875 33.015625 -1.421875 
Q 20.359375 -1.421875 13.671875 8.265625 
Q 6.984375 17.96875 6.984375 36.375 
Q 6.984375 53.65625 15.1875 63.9375 
Q 23.390625 74.21875 37.203125 74.21875 
Q 40.921875 74.21875 44.703125 73.484375 
Q 48.484375 72.75 52.59375 71.296875 
z
" id="DejaVuSans-54"/>
       </defs>
       <use xlink:href="#DejaVuSans-54"/>
       <use x="63.623047" xlink:href="#DejaVuSans-48"/>
       <use x="127.246094" xlink:href="#DejaVuSans-48"/>
       <use x="190.869141" xlink:href="#DejaVuSans-48"/>
      </g>
     </g>
    </g>
    <g id="xtick_5">
     <g id="line2d_9">
      <path clip-path="url(#p7339af1ce6)" d="M 299.058811 239.758125 
L 299.058811 22.318125 
" style="fill:none;stroke:#b0b0b0;stroke-linecap:square;stroke-width:0.8;"/>
     </g>
     <g id="line2d_10">
      <g>
       <use style="stroke:#000000;stroke-width:0.8;" x="299.058811" xlink:href="#me3b950dd70" y="239.758125"/>
      </g>
     </g>
     <g id="text_5">
      <!-- 8000 -->
      <g transform="translate(286.333811 254.356562)scale(0.1 -0.1)">
       <defs>
        <path d="M 31.78125 34.625 
Q 24.75 34.625 20.71875 30.859375 
Q 16.703125 27.09375 16.703125 20.515625 
Q 16.703125 13.921875 20.71875 10.15625 
Q 24.75 6.390625 31.78125 6.390625 
Q 38.8125 6.390625 42.859375 10.171875 
Q 46.921875 13.96875 46.921875 20.515625 
Q 46.921875 27.09375 42.890625 30.859375 
Q 38.875 34.625 31.78125 34.625 
z
M 21.921875 38.8125 
Q 15.578125 40.375 12.03125 44.71875 
Q 8.5 49.078125 8.5 55.328125 
Q 8.5 64.0625 14.71875 69.140625 
Q 20.953125 74.21875 31.78125 74.21875 
Q 42.671875 74.21875 48.875 69.140625 
Q 55.078125 64.0625 55.078125 55.328125 
Q 55.078125 49.078125 51.53125 44.71875 
Q 48 40.375 41.703125 38.8125 
Q 48.828125 37.15625 52.796875 32.3125 
Q 56.78125 27.484375 56.78125 20.515625 
Q 56.78125 9.90625 50.3125 4.234375 
Q 43.84375 -1.421875 31.78125 -1.421875 
Q 19.734375 -1.421875 13.25 4.234375 
Q 6.78125 9.90625 6.78125 20.515625 
Q 6.78125 27.484375 10.78125 32.3125 
Q 14.796875 37.15625 21.921875 38.8125 
z
M 18.3125 54.390625 
Q 18.3125 48.734375 21.84375 45.5625 
Q 25.390625 42.390625 31.78125 42.390625 
Q 38.140625 42.390625 41.71875 45.5625 
Q 45.3125 48.734375 45.3125 54.390625 
Q 45.3125 60.0625 41.71875 63.234375 
Q 38.140625 66.40625 31.78125 66.40625 
Q 25.390625 66.40625 21.84375 63.234375 
Q 18.3125 60.0625 18.3125 54.390625 
z
" id="DejaVuSans-56"/>
       </defs>
       <use xlink:href="#DejaVuSans-56"/>
       <use x="63.623047" xlink:href="#DejaVuSans-48"/>
       <use x="127.246094" xlink:href="#DejaVuSans-48"/>
       <use x="190.869141" xlink:href="#DejaVuSans-48"/>
      </g>
     </g>
    </g>
    <g id="xtick_6">
     <g id="line2d_11">
      <path clip-path="url(#p7339af1ce6)" d="M 360.864809 239.758125 
L 360.864809 22.318125 
" style="fill:none;stroke:#b0b0b0;stroke-linecap:square;stroke-width:0.8;"/>
     </g>
     <g id="line2d_12">
      <g>
       <use style="stroke:#000000;stroke-width:0.8;" x="360.864809" xlink:href="#me3b950dd70" y="239.758125"/>
      </g>
     </g>
     <g id="text_6">
      <!-- 10000 -->
      <g transform="translate(344.958559 254.356562)scale(0.1 -0.1)">
       <defs>
        <path d="M 12.40625 8.296875 
L 28.515625 8.296875 
L 28.515625 63.921875 
L 10.984375 60.40625 
L 10.984375 69.390625 
L 28.421875 72.90625 
L 38.28125 72.90625 
L 38.28125 8.296875 
L 54.390625 8.296875 
L 54.390625 0 
L 12.40625 0 
z
" id="DejaVuSans-49"/>
       </defs>
       <use xlink:href="#DejaVuSans-49"/>
       <use x="63.623047" xlink:href="#DejaVuSans-48"/>
       <use x="127.246094" xlink:href="#DejaVuSans-48"/>
       <use x="190.869141" xlink:href="#DejaVuSans-48"/>
       <use x="254.492188" xlink:href="#DejaVuSans-48"/>
      </g>
     </g>
    </g>
    <g id="text_7">
     <!-- time (ns) -->
     <g transform="translate(185.442969 268.034687)scale(0.1 -0.1)">
      <defs>
       <path d="M 18.3125 70.21875 
L 18.3125 54.6875 
L 36.8125 54.6875 
L 36.8125 47.703125 
L 18.3125 47.703125 
L 18.3125 18.015625 
Q 18.3125 11.328125 20.140625 9.421875 
Q 21.96875 7.515625 27.59375 7.515625 
L 36.8125 7.515625 
L 36.8125 0 
L 27.59375 0 
Q 17.1875 0 13.234375 3.875 
Q 9.28125 7.765625 9.28125 18.015625 
L 9.28125 47.703125 
L 2.6875 47.703125 
L 2.6875 54.6875 
L 9.28125 54.6875 
L 9.28125 70.21875 
z
" id="DejaVuSans-116"/>
       <path d="M 9.421875 54.6875 
L 18.40625 54.6875 
L 18.40625 0 
L 9.421875 0 
z
M 9.421875 75.984375 
L 18.40625 75.984375 
L 18.40625 64.59375 
L 9.421875 64.59375 
z
" id="DejaVuSans-105"/>
       <path d="M 52 44.1875 
Q 55.375 50.25 60.0625 53.125 
Q 64.75 56 71.09375 56 
Q 79.640625 56 84.28125 50.015625 
Q 88.921875 44.046875 88.921875 33.015625 
L 88.921875 0 
L 79.890625 0 
L 79.890625 32.71875 
Q 79.890625 40.578125 77.09375 44.375 
Q 74.3125 48.1875 68.609375 48.1875 
Q 61.625 48.1875 57.5625 43.546875 
Q 53.515625 38.921875 53.515625 30.90625 
L 53.515625 0 
L 44.484375 0 
L 44.484375 32.71875 
Q 44.484375 40.625 41.703125 44.40625 
Q 38.921875 48.1875 33.109375 48.1875 
Q 26.21875 48.1875 22.15625 43.53125 
Q 18.109375 38.875 18.109375 30.90625 
L 18.109375 0 
L 9.078125 0 
L 9.078125 54.6875 
L 18.109375 54.6875 
L 18.109375 46.1875 
Q 21.1875 51.21875 25.484375 53.609375 
Q 29.78125 56 35.6875 56 
Q 41.65625 56 45.828125 52.96875 
Q 50 49.953125 52 44.1875 
z
" id="DejaVuSans-109"/>
       <path d="M 56.203125 29.59375 
L 56.203125 25.203125 
L 14.890625 25.203125 
Q 15.484375 15.921875 20.484375 11.0625 
Q 25.484375 6.203125 34.421875 6.203125 
Q 39.59375 6.203125 44.453125 7.46875 
Q 49.3125 8.734375 54.109375 11.28125 
L 54.109375 2.78125 
Q 49.265625 0.734375 44.1875 -0.34375 
Q 39.109375 -1.421875 33.890625 -1.421875 
Q 20.796875 -1.421875 13.15625 6.1875 
Q 5.515625 13.8125 5.515625 26.8125 
Q 5.515625 40.234375 12.765625 48.109375 
Q 20.015625 56 32.328125 56 
Q 43.359375 56 49.78125 48.890625 
Q 56.203125 41.796875 56.203125 29.59375 
z
M 47.21875 32.234375 
Q 47.125 39.59375 43.09375 43.984375 
Q 39.0625 48.390625 32.421875 48.390625 
Q 24.90625 48.390625 20.390625 44.140625 
Q 15.875 39.890625 15.1875 32.171875 
z
" id="DejaVuSans-101"/>
       <path id="DejaVuSans-32"/>
       <path d="M 31 75.875 
Q 24.46875 64.65625 21.28125 53.65625 
Q 18.109375 42.671875 18.109375 31.390625 
Q 18.109375 20.125 21.3125 9.0625 
Q 24.515625 -2 31 -13.1875 
L 23.1875 -13.1875 
Q 15.875 -1.703125 12.234375 9.375 
Q 8.59375 20.453125 8.59375 31.390625 
Q 8.59375 42.28125 12.203125 53.3125 
Q 15.828125 64.359375 23.1875 75.875 
z
" id="DejaVuSans-40"/>
       <path d="M 54.890625 33.015625 
L 54.890625 0 
L 45.90625 0 
L 45.90625 32.71875 
Q 45.90625 40.484375 42.875 44.328125 
Q 39.84375 48.1875 33.796875 48.1875 
Q 26.515625 48.1875 22.3125 43.546875 
Q 18.109375 38.921875 18.109375 30.90625 
L 18.109375 0 
L 9.078125 0 
L 9.078125 54.6875 
L 18.109375 54.6875 
L 18.109375 46.1875 
Q 21.34375 51.125 25.703125 53.5625 
Q 30.078125 56 35.796875 56 
Q 45.21875 56 50.046875 50.171875 
Q 54.890625 44.34375 54.890625 33.015625 
z
" id="DejaVuSans-110"/>
       <path d="M 44.28125 53.078125 
L 44.28125 44.578125 
Q 40.484375 46.53125 36.375 47.5 
Q 32.28125 48.484375 27.875 48.484375 
Q 21.1875 48.484375 17.84375 46.4375 
Q 14.5 44.390625 14.5 40.28125 
Q 14.5 37.15625 16.890625 35.375 
Q 19.28125 33.59375 26.515625 31.984375 
L 29.59375 31.296875 
Q 39.15625 29.25 43.1875 25.515625 
Q 47.21875 21.78125 47.21875 15.09375 
Q 47.21875 7.46875 41.1875 3.015625 
Q 35.15625 -1.421875 24.609375 -1.421875 
Q 20.21875 -1.421875 15.453125 -0.5625 
Q 10.6875 0.296875 5.421875 2 
L 5.421875 11.28125 
Q 10.40625 8.6875 15.234375 7.390625 
Q 20.0625 6.109375 24.8125 6.109375 
Q 31.15625 6.109375 34.5625 8.28125 
Q 37.984375 10.453125 37.984375 14.40625 
Q 37.984375 18.0625 35.515625 20.015625 
Q 33.0625 21.96875 24.703125 23.78125 
L 21.578125 24.515625 
Q 13.234375 26.265625 9.515625 29.90625 
Q 5.8125 33.546875 5.8125 39.890625 
Q 5.8125 47.609375 11.28125 51.796875 
Q 16.75 56 26.8125 56 
Q 31.78125 56 36.171875 55.265625 
Q 40.578125 54.546875 44.28125 53.078125 
z
" id="DejaVuSans-115"/>
       <path d="M 8.015625 75.875 
L 15.828125 75.875 
Q 23.140625 64.359375 26.78125 53.3125 
Q 30.421875 42.28125 30.421875 31.390625 
Q 30.421875 20.453125 26.78125 9.375 
Q 23.140625 -1.703125 15.828125 -13.1875 
L 8.015625 -13.1875 
Q 14.5 -2 17.703125 9.0625 
Q 20.90625 20.125 20.90625 31.390625 
Q 20.90625 42.671875 17.703125 53.65625 
Q 14.5 64.65625 8.015625 75.875 
z
" id="DejaVuSans-41"/>
      </defs>
      <use xlink:href="#DejaVuSans-116"/>
      <use x="39.208984" xlink:href="#DejaVuSans-105"/>
      <use x="66.992188" xlink:href="#DejaVuSans-109"/>
      <use x="164.404297" xlink:href="#DejaVuSans-101"/>
      <use x="225.927734" xlink:href="#DejaVuSans-32"/>
      <use x="257.714844" xlink:href="#DejaVuSans-40"/>
      <use x="296.728516" xlink:href="#DejaVuSans-110"/>
      <use x="360.107422" xlink:href="#DejaVuSans-115"/>
      <use x="412.207031" xlink:href="#DejaVuSans-41"/>
     </g>
    </g>
   </g>
   <g id="matplotlib.axis_2">
    <g id="ytick_1">
     <g id="line2d_13">
      <path clip-path="url(#p7339af1ce6)" d="M 40.603125 219.04802 
L 375.403125 219.04802 
" style="fill:none;stroke:#b0b0b0;stroke-linecap:square;stroke-width:0.8;"/>
     </g>
     <g id="line2d_14">
      <defs>
       <path d="M 0 0 
L -3.5 0 
" id="m0637e531a6" style="stroke:#000000;stroke-width:0.8;"/>
      </defs>
      <g>
       <use style="stroke:#000000;stroke-width:0.8;" x="40.603125" xlink:href="#m0637e531a6" y="219.04802"/>
      </g>
     </g>
     <g id="text_8">
      <!-- 6 -->
      <g transform="translate(27.240625 222.847239)scale(0.1 -0.1)">
       <use xlink:href="#DejaVuSans-54"/>
      </g>
     </g>
    </g>
    <g id="ytick_2">
     <g id="line2d_15">
      <path clip-path="url(#p7339af1ce6)" d="M 40.603125 191.305195 
L 375.403125 191.305195 
" style="fill:none;stroke:#b0b0b0;stroke-linecap:square;stroke-width:0.8;"/>
     </g>
     <g id="line2d_16">
      <g>
       <use style="stroke:#000000;stroke-width:0.8;" x="40.603125" xlink:href="#m0637e531a6" y="191.305195"/>
      </g>
     </g>
     <g id="text_9">
      <!-- 8 -->
      <g transform="translate(27.240625 195.104413)scale(0.1 -0.1)">
       <use xlink:href="#DejaVuSans-56"/>
      </g>
     </g>
    </g>
    <g id="ytick_3">
     <g id="line2d_17">
      <path clip-path="url(#p7339af1ce6)" d="M 40.603125 163.562369 
L 375.403125 163.562369 
" style="fill:none;stroke:#b0b0b0;stroke-linecap:square;stroke-width:0.8;"/>
     </g>
     <g id="line2d_18">
      <g>
       <use style="stroke:#000000;stroke-width:0.8;" x="40.603125" xlink:href="#m0637e531a6" y="163.562369"/>
      </g>
     </g>
     <g id="text_10">
      <!-- 10 -->
      <g transform="translate(20.878125 167.361588)scale(0.1 -0.1)">
       <use xlink:href="#DejaVuSans-49"/>
       <use x="63.623047" xlink:href="#DejaVuSans-48"/>
      </g>
     </g>
    </g>
    <g id="ytick_4">
     <g id="line2d_19">
      <path clip-path="url(#p7339af1ce6)" d="M 40.603125 135.819544 
L 375.403125 135.819544 
" style="fill:none;stroke:#b0b0b0;stroke-linecap:square;stroke-width:0.8;"/>
     </g>
     <g id="line2d_20">
      <g>
       <use style="stroke:#000000;stroke-width:0.8;" x="40.603125" xlink:href="#m0637e531a6" y="135.819544"/>
      </g>
     </g>
     <g id="text_11">
      <!-- 12 -->
      <g transform="translate(20.878125 139.618762)scale(0.1 -0.1)">
       <use xlink:href="#DejaVuSans-49"/>
       <use x="63.623047" xlink:href="#DejaVuSans-50"/>
      </g>
     </g>
    </g>
    <g id="ytick_5">
     <g id="line2d_21">
      <path clip-path="url(#p7339af1ce6)" d="M 40.603125 108.076718 
L 375.403125 108.076718 
" style="fill:none;stroke:#b0b0b0;stroke-linecap:square;stroke-width:0.8;"/>
     </g>
     <g id="line2d_22">
      <g>
       <use style="stroke:#000000;stroke-width:0.8;" x="40.603125" xlink:href="#m0637e531a6" y="108.076718"/>
      </g>
     </g>
     <g id="text_12">
      <!-- 14 -->
      <g transform="translate(20.878125 111.875937)scale(0.1 -0.1)">
       <use xlink:href="#DejaVuSans-49"/>
       <use x="63.623047" xlink:href="#DejaVuSans-52"/>
      </g>
     </g>
    </g>
    <g id="ytick_6">
     <g id="line2d_23">
      <path clip-path="url(#p7339af1ce6)" d="M 40.603125 80.333892 
L 375.403125 80.333892 
" style="fill:none;stroke:#b0b0b0;stroke-linecap:square;stroke-width:0.8;"/>
     </g>
     <g id="line2d_24">
      <g>
       <use style="stroke:#000000;stroke-width:0.8;" x="40.603125" xlink:href="#m0637e531a6" y="80.333892"/>
      </g>
     </g>
     <g id="text_13">
      <!-- 16 -->
      <g transform="translate(20.878125 84.133111)scale(0.1 -0.1)">
       <use xlink:href="#DejaVuSans-49"/>
       <use x="63.623047" xlink:href="#DejaVuSans-54"/>
      </g>
     </g>
    </g>
    <g id="ytick_7">
     <g id="line2d_25">
      <path clip-path="url(#p7339af1ce6)" d="M 40.603125 52.591067 
L 375.403125 52.591067 
" style="fill:none;stroke:#b0b0b0;stroke-linecap:square;stroke-width:0.8;"/>
     </g>
     <g id="line2d_26">
      <g>
       <use style="stroke:#000000;stroke-width:0.8;" x="40.603125" xlink:href="#m0637e531a6" y="52.591067"/>
      </g>
     </g>
     <g id="text_14">
      <!-- 18 -->
      <g transform="translate(20.878125 56.390286)scale(0.1 -0.1)">
       <use xlink:href="#DejaVuSans-49"/>
       <use x="63.623047" xlink:href="#DejaVuSans-56"/>
      </g>
     </g>
    </g>
    <g id="ytick_8">
     <g id="line2d_27">
      <path clip-path="url(#p7339af1ce6)" d="M 40.603125 24.848241 
L 375.403125 24.848241 
" style="fill:none;stroke:#b0b0b0;stroke-linecap:square;stroke-width:0.8;"/>
     </g>
     <g id="line2d_28">
      <g>
       <use style="stroke:#000000;stroke-width:0.8;" x="40.603125" xlink:href="#m0637e531a6" y="24.848241"/>
      </g>
     </g>
     <g id="text_15">
      <!-- 20 -->
      <g transform="translate(20.878125 28.64746)scale(0.1 -0.1)">
       <use xlink:href="#DejaVuSans-50"/>
       <use x="63.623047" xlink:href="#DejaVuSans-48"/>
      </g>
     </g>
    </g>
    <g id="text_16">
     <!-- bandwidth (Gbit/s) -->
     <g transform="translate(14.798438 177.577969)rotate(-90)scale(0.1 -0.1)">
      <defs>
       <path d="M 48.6875 27.296875 
Q 48.6875 37.203125 44.609375 42.84375 
Q 40.53125 48.484375 33.40625 48.484375 
Q 26.265625 48.484375 22.1875 42.84375 
Q 18.109375 37.203125 18.109375 27.296875 
Q 18.109375 17.390625 22.1875 11.75 
Q 26.265625 6.109375 33.40625 6.109375 
Q 40.53125 6.109375 44.609375 11.75 
Q 48.6875 17.390625 48.6875 27.296875 
z
M 18.109375 46.390625 
Q 20.953125 51.265625 25.265625 53.625 
Q 29.59375 56 35.59375 56 
Q 45.5625 56 51.78125 48.09375 
Q 58.015625 40.1875 58.015625 27.296875 
Q 58.015625 14.40625 51.78125 6.484375 
Q 45.5625 -1.421875 35.59375 -1.421875 
Q 29.59375 -1.421875 25.265625 0.953125 
Q 20.953125 3.328125 18.109375 8.203125 
L 18.109375 0 
L 9.078125 0 
L 9.078125 75.984375 
L 18.109375 75.984375 
z
" id="DejaVuSans-98"/>
       <path d="M 34.28125 27.484375 
Q 23.390625 27.484375 19.1875 25 
Q 14.984375 22.515625 14.984375 16.5 
Q 14.984375 11.71875 18.140625 8.90625 
Q 21.296875 6.109375 26.703125 6.109375 
Q 34.1875 6.109375 38.703125 11.40625 
Q 43.21875 16.703125 43.21875 25.484375 
L 43.21875 27.484375 
z
M 52.203125 31.203125 
L 52.203125 0 
L 43.21875 0 
L 43.21875 8.296875 
Q 40.140625 3.328125 35.546875 0.953125 
Q 30.953125 -1.421875 24.3125 -1.421875 
Q 15.921875 -1.421875 10.953125 3.296875 
Q 6 8.015625 6 15.921875 
Q 6 25.140625 12.171875 29.828125 
Q 18.359375 34.515625 30.609375 34.515625 
L 43.21875 34.515625 
L 43.21875 35.40625 
Q 43.21875 41.609375 39.140625 45 
Q 35.0625 48.390625 27.6875 48.390625 
Q 23 48.390625 18.546875 47.265625 
Q 14.109375 46.140625 10.015625 43.890625 
L 10.015625 52.203125 
Q 14.9375 54.109375 19.578125 55.046875 
Q 24.21875 56 28.609375 56 
Q 40.484375 56 46.34375 49.84375 
Q 52.203125 43.703125 52.203125 31.203125 
z
" id="DejaVuSans-97"/>
       <path d="M 45.40625 46.390625 
L 45.40625 75.984375 
L 54.390625 75.984375 
L 54.390625 0 
L 45.40625 0 
L 45.40625 8.203125 
Q 42.578125 3.328125 38.25 0.953125 
Q 33.9375 -1.421875 27.875 -1.421875 
Q 17.96875 -1.421875 11.734375 6.484375 
Q 5.515625 14.40625 5.515625 27.296875 
Q 5.515625 40.1875 11.734375 48.09375 
Q 17.96875 56 27.875 56 
Q 33.9375 56 38.25 53.625 
Q 42.578125 51.265625 45.40625 46.390625 
z
M 14.796875 27.296875 
Q 14.796875 17.390625 18.875 11.75 
Q 22.953125 6.109375 30.078125 6.109375 
Q 37.203125 6.109375 41.296875 11.75 
Q 45.40625 17.390625 45.40625 27.296875 
Q 45.40625 37.203125 41.296875 42.84375 
Q 37.203125 48.484375 30.078125 48.484375 
Q 22.953125 48.484375 18.875 42.84375 
Q 14.796875 37.203125 14.796875 27.296875 
z
" id="DejaVuSans-100"/>
       <path d="M 4.203125 54.6875 
L 13.1875 54.6875 
L 24.421875 12.015625 
L 35.59375 54.6875 
L 46.1875 54.6875 
L 57.421875 12.015625 
L 68.609375 54.6875 
L 77.59375 54.6875 
L 63.28125 0 
L 52.6875 0 
L 40.921875 44.828125 
L 29.109375 0 
L 18.5 0 
z
" id="DejaVuSans-119"/>
       <path d="M 54.890625 33.015625 
L 54.890625 0 
L 45.90625 0 
L 45.90625 32.71875 
Q 45.90625 40.484375 42.875 44.328125 
Q 39.84375 48.1875 33.796875 48.1875 
Q 26.515625 48.1875 22.3125 43.546875 
Q 18.109375 38.921875 18.109375 30.90625 
L 18.109375 0 
L 9.078125 0 
L 9.078125 75.984375 
L 18.109375 75.984375 
L 18.109375 46.1875 
Q 21.34375 51.125 25.703125 53.5625 
Q 30.078125 56 35.796875 56 
Q 45.21875 56 50.046875 50.171875 
Q 54.890625 44.34375 54.890625 33.015625 
z
" id="DejaVuSans-104"/>
       <path d="M 59.515625 10.40625 
L 59.515625 29.984375 
L 43.40625 29.984375 
L 43.40625 38.09375 
L 69.28125 38.09375 
L 69.28125 6.78125 
Q 63.578125 2.734375 56.6875 0.65625 
Q 49.8125 -1.421875 42 -1.421875 
Q 24.90625 -1.421875 15.25 8.5625 
Q 5.609375 18.5625 5.609375 36.375 
Q 5.609375 54.25 15.25 64.234375 
Q 24.90625 74.21875 42 74.21875 
Q 49.125 74.21875 55.546875 72.453125 
Q 61.96875 70.703125 67.390625 67.28125 
L 67.390625 56.78125 
Q 61.921875 61.421875 55.765625 63.765625 
Q 49.609375 66.109375 42.828125 66.109375 
Q 29.4375 66.109375 22.71875 58.640625 
Q 16.015625 51.171875 16.015625 36.375 
Q 16.015625 21.625 22.71875 14.15625 
Q 29.4375 6.6875 42.828125 6.6875 
Q 48.046875 6.6875 52.140625 7.59375 
Q 56.25 8.5 59.515625 10.40625 
z
" id="DejaVuSans-71"/>
       <path d="M 25.390625 72.90625 
L 33.6875 72.90625 
L 8.296875 -9.28125 
L 0 -9.28125 
z
" id="DejaVuSans-47"/>
      </defs>
      <use xlink:href="#DejaVuSans-98"/>
      <use x="63.476562" xlink:href="#DejaVuSans-97"/>
      <use x="124.755859" xlink:href="#DejaVuSans-110"/>
      <use x="188.134766" xlink:href="#DejaVuSans-100"/>
      <use x="251.611328" xlink:href="#DejaVuSans-119"/>
      <use x="333.398438" xlink:href="#DejaVuSans-105"/>
      <use x="361.181641" xlink:href="#DejaVuSans-100"/>
      <use x="424.658203" xlink:href="#DejaVuSans-116"/>
      <use x="463.867188" xlink:href="#DejaVuSans-104"/>
      <use x="527.246094" xlink:href="#DejaVuSans-32"/>
      <use x="559.033203" xlink:href="#DejaVuSans-40"/>
      <use x="598.046875" xlink:href="#DejaVuSans-71"/>
      <use x="675.537109" xlink:href="#DejaVuSans-98"/>
      <use x="739.013672" xlink:href="#DejaVuSans-105"/>
      <use x="766.796875" xlink:href="#DejaVuSans-116"/>
      <use x="806.005859" xlink:href="#DejaVuSans-47"/>
      <use x="839.697266" xlink:href="#DejaVuSans-115"/>
      <use x="891.796875" xlink:href="#DejaVuSans-41"/>
     </g>
    </g>
   </g>
   <g id="line2d_29">
    <path clip-path="url(#p7339af1ce6)" d="M 55.821307 80.333892 
L 55.975822 172.809978 
L 56.192143 182.768941 
L 56.315755 184.777471 
L 56.624785 146.094664 
L 56.748397 137.609403 
L 56.7793 139.287397 
L 56.841106 142.347267 
L 56.872009 140.575456 
L 56.995621 134.396835 
L 57.428263 149.429232 
L 57.737293 159.599108 
L 58.169935 174.010966 
L 58.386256 175.452151 
L 59.436958 211.054325 
L 59.529667 210.564677 
L 59.56057 210.406812 
L 60.024115 191.305195 
L 60.673078 148.461844 
L 61.074817 143.931481 
L 61.167526 145.386035 
L 61.229332 145.277325 
L 61.383847 144.70951 
L 61.41475 144.96553 
L 61.445653 144.612352 
L 61.476556 144.866117 
L 61.631071 144.333215 
L 61.661974 144.580436 
L 61.692877 144.244066 
L 61.72378 144.489176 
L 61.816489 144.071256 
L 61.847392 144.312245 
L 62.125519 146.37535 
L 62.774482 158.406623 
L 63.608863 161.917537 
L 63.856087 164.093841 
L 64.690468 166.644905 
L 66.451938 187.766979 
L 67.317222 188.032582 
L 67.873476 192.156637 
L 67.997088 192.148015 
L 68.73876 185.743387 
L 68.800566 185.769809 
L 68.985984 185.84759 
L 69.97488 192.997567 
L 70.067589 192.986578 
L 70.840164 187.203586 
L 70.90197 187.220361 
L 71.056485 187.261706 
L 89.13474 80.333892 
L 89.690994 80.333892 
L 89.969121 51.696137 
L 90.309054 85.61824 
L 90.587181 84.685708 
L 90.803502 61.200909 
L 91.019823 47.896127 
L 91.452465 35.383492 
L 91.576077 32.201761 
L 91.637883 33.334282 
L 92.194137 60.940849 
L 94.202831 151.012043 
L 94.450055 152.84355 
L 94.480958 152.433891 
L 95.037212 145.778507 
L 95.068115 146.010786 
L 95.438951 148.623925 
L 97.509452 184.44515 
L 97.942094 184.777471 
L 98.374736 179.951695 
L 98.436542 180.026144 
L 98.93099 180.58834 
L 99.116408 181.124341 
L 99.456341 181.455671 
L 99.610856 179.981592 
L 99.703565 180.079774 
L 99.765371 180.144288 
L 100.16711 175.627808 
L 100.692461 167.819205 
L 100.816073 166.322127 
L 101.001491 164.706403 
L 101.032394 164.77478 
L 101.186909 164.266502 
L 101.495939 165.210458 
L 101.866775 167.030222 
L 102.02129 167.318524 
L 102.886574 174.49885 
L 103.473731 175.181159 
L 103.720955 173.587088 
L 103.782761 173.661222 
L 104.215403 174.163286 
L 104.617142 172.218131 
L 105.173396 172.218131 
L 105.297008 173.771729 
L 105.544232 175.991155 
L 105.636941 175.515691 
L 105.667844 175.54727 
L 106.316807 180.873892 
L 106.749449 185.534687 
L 107.243897 188.419941 
L 107.336606 188.419941 
L 107.645636 186.200515 
L 107.676539 170.371972 
L 107.769248 170.513732 
L 108.325502 171.325546 
L 108.665435 173.201825 
L 109.407107 174.077795 
L 109.499816 173.514204 
L 109.592525 173.549786 
L 109.932458 173.549786 
L 110.396003 176.878925 
L 111.817541 172.492463 
L 111.879347 172.572859 
L 112.775534 173.665893 
L 114.135266 185.756629 
L 114.38249 185.756629 
L 114.506102 185.534687 
L 114.598811 185.534687 
L 115.00055 183.093318 
L 115.185968 183.759146 
L 115.216871 183.759146 
L 115.340483 183.537203 
L 115.402289 183.537203 
L 115.556804 182.649433 
L 115.61861 182.649433 
L 116.051252 185.090802 
L 116.082155 185.090802 
L 116.391185 187.754113 
L 116.731118 190.193258 
L 116.947439 190.195482 
L 117.16376 189.303708 
L 117.441887 189.307711 
L 117.47279 189.085769 
L 117.596402 182.751157 
L 118.39988 183.093318 
L 118.430783 183.093318 
L 118.616201 183.537203 
L 118.956134 183.537203 
L 119.234261 185.312744 
L 119.265164 185.090802 
L 119.574194 183.537203 
L 119.697806 183.537203 
L 120.223157 187.310228 
L 122.540881 211.058086 
L 122.757202 211.058086 
L 122.911717 210.614201 
L 123.128038 210.614201 
L 123.375262 209.504488 
L 123.406165 209.504488 
L 123.807904 205.906682 
L 123.931516 206.235069 
L 124.271449 206.841177 
L 124.549576 206.841177 
L 124.827703 207.95089 
L 124.858606 207.95089 
L 125.507569 202.624267 
L 125.847502 198.851243 
L 125.971114 188.39765 
L 126.311047 185.863105 
L 126.403756 185.897695 
L 126.929107 186.085685 
L 127.238137 188.191771 
L 127.26904 187.976056 
L 127.794391 178.876409 
L 128.227033 169.554819 
L 128.350645 157.031121 
L 128.474257 156.611811 
L 128.783287 157.57178 
L 129.185026 159.372636 
L 129.463153 159.948574 
L 131.780878 187.088285 
L 131.842684 187.088285 
L 131.873587 185.452753 
L 131.966296 185.488151 
L 132.398938 185.534687 
L 132.646162 185.534687 
L 135.056596 204.399808 
L 135.674656 204.399808 
L 135.705559 189.254916 
L 135.798268 189.269024 
L 135.92188 189.287535 
L 136.879873 196.488568 
L 136.910776 196.242477 
L 137.868769 189.307711 
L 138.177799 190.639367 
L 138.239605 190.639367 
L 138.332314 191.083252 
L 138.363217 190.861309 
L 138.857665 186.6444 
L 139.073986 185.090802 
L 139.197598 185.090802 
L 139.290307 184.411186 
L 139.32121 184.424974 
L 139.506628 184.868859 
L 139.537531 184.633573 
L 139.63024 184.646916 
L 140.001076 184.646916 
L 140.031979 183.458739 
L 140.124688 183.506007 
L 140.341009 183.537203 
L 140.959069 188.641883 
L 141.268099 191.527137 
L 141.329905 191.527137 
L 141.422614 191.083252 
L 141.453517 191.305195 
L 141.886159 193.746563 
L 142.133383 193.746563 
L 143.122279 203.955923 
L 143.369503 207.285062 
L 143.554921 207.95089 
L 143.709436 207.95089 
L 143.833048 206.397292 
L 144.420205 199.517071 
L 144.451108 199.31114 
L 144.512914 199.517071 
L 144.914653 199.517071 
L 144.945556 182.510266 
L 145.038265 182.571342 
L 145.470907 182.845499 
L 146.459803 189.912249 
L 147.294184 189.973539 
L 147.417796 189.751596 
L 147.819535 189.751596 
L 148.097662 187.754113 
L 148.221274 166.989804 
L 148.28308 166.587689 
L 148.344886 166.701857 
L 148.808431 167.52563 
L 149.550103 173.201825 
L 149.859133 173.577414 
L 150.384484 170.400781 
L 150.44629 170.44259 
L 150.848028 170.44259 
L 152.424081 173.549786 
L 153.938328 185.090802 
L 154.741806 195.078219 
L 156.101538 203.512038 
L 156.410568 203.512038 
L 156.53418 201.95844 
L 157.46127 184.203031 
L 157.584882 183.981089 
L 157.615785 176.963564 
L 157.708494 177.054143 
L 157.955718 177.290185 
L 158.913711 185.312744 
L 159.31545 189.529654 
L 159.562674 190.639367 
L 159.593577 190.639367 
L 159.717189 191.305195 
L 159.748092 191.083252 
L 159.871704 189.529654 
L 160.118928 187.310228 
L 160.767891 187.310228 
L 160.922406 187.53217 
L 160.953309 180.725303 
L 161.046018 180.792124 
L 161.571369 181.15538 
L 161.78769 179.741051 
L 161.880399 179.764179 
L 162.560265 179.764179 
L 163.858191 191.305195 
L 164.167221 191.305195 
L 164.25993 190.195482 
L 164.383542 183.968249 
L 165.156117 174.437557 
L 165.279729 174.215614 
L 165.341535 174.215614 
L 165.835983 177.766696 
L 167.504745 178.552444 
L 167.782872 178.654466 
L 167.999193 178.654466 
L 168.308223 177.100868 
L 168.58635 177.100868 
L 168.617253 171.885217 
L 168.709962 172.005838 
L 168.802671 172.12497 
L 168.988089 171.005566 
L 169.049895 171.087751 
L 169.358925 171.33036 
L 169.389828 171.33036 
L 169.884276 168.445106 
L 170.069694 168.445106 
L 170.193306 167.113451 
L 170.316918 153.675617 
L 170.533239 152.111075 
L 170.965881 149.576317 
L 171.120396 148.187511 
L 171.151299 148.275506 
L 171.244008 148.762444 
L 171.460329 149.579985 
L 171.707553 149.579985 
L 171.954777 148.248329 
L 172.202001 153.353009 
L 172.696449 164.006254 
L 175.663137 193.524621 
L 175.941264 193.524621 
L 176.126682 193.968506 
L 176.219391 193.968506 
L 176.343003 193.746563 
L 176.466615 193.746563 
L 176.682936 191.527137 
L 177.115578 186.6444 
L 177.270093 186.6444 
L 177.54822 185.312744 
L 177.579123 185.312744 
L 180.422198 205.731464 
L 180.762131 209.060603 
L 181.194773 209.060603 
L 182.492699 206.836675 
L 183.079856 201.070669 
L 183.450692 197.075702 
L 183.481595 197.075702 
L 183.697916 198.407358 
L 183.728819 198.185415 
L 183.976043 197.075702 
L 184.285073 197.075702 
L 184.5632 198.407358 
L 184.655909 198.407358 
L 186.139253 215.274996 
L 186.479186 218.382192 
L 186.633701 219.713848 
L 186.850022 218.382192 
L 187.189955 218.382192 
L 187.529888 220.157733 
L 187.591694 220.157733 
L 187.715306 219.935791 
L 188.147948 219.935791 
L 188.27156 205.757271 
L 188.333366 205.690363 
L 188.673299 203.329173 
L 188.982329 203.063743 
L 189.414971 200.097353 
L 189.81671 199.859232 
L 190.063934 198.582001 
L 190.681994 198.407358 
L 190.805606 198.407358 
L 191.300054 201.070669 
L 191.392763 201.070669 
L 191.516375 200.626784 
L 191.609084 200.626784 
L 192.041726 198.185415 
L 192.072629 198.185415 
L 192.567077 201.070669 
L 192.59798 201.070669 
L 193.030622 203.512038 
L 193.061525 183.283173 
L 193.154234 183.340747 
L 193.370555 184.255253 
L 193.679585 184.417321 
L 194.019518 181.103797 
L 194.946608 168.458162 
L 195.162929 167.640507 
L 195.193832 167.689401 
L 195.317444 167.200772 
L 195.348347 167.250066 
L 195.410153 167.34805 
L 196.584467 161.121 
L 196.646273 161.121 
L 196.769885 150.046634 
L 196.800788 149.897992 
L 196.862594 150.073819 
L 197.666072 152.230792 
L 198.624065 161.342943 
L 198.933095 164.450139 
L 198.963998 164.450139 
L 199.427543 167.779279 
L 200.107409 167.779279 
L 200.138312 157.34415 
L 200.200118 157.489905 
L 202.672358 177.544753 
L 203.105 177.544753 
L 203.970284 171.996188 
L 204.464732 171.996188 
L 204.897374 174.437557 
L 206.257106 174.437557 
L 206.288009 171.293976 
L 208.296703 192.414908 
L 208.605733 192.414908 
L 208.729345 191.74908 
L 208.791151 191.74908 
L 209.069278 189.085769 
L 209.254696 187.754113 
L 209.378308 187.754113 
L 209.50192 187.53217 
L 209.718241 187.53217 
L 209.81095 187.088285 
L 209.841853 187.310228 
L 210.058174 189.529654 
L 210.583525 195.522104 
L 210.614428 195.522104 
L 210.830749 196.409874 
L 210.892555 196.409874 
L 211.170682 197.74153 
L 211.232488 197.74153 
L 211.325197 197.297645 
L 211.3561 197.519588 
L 211.448809 197.519588 
L 211.97416 193.080735 
L 212.221384 191.083252 
L 212.28319 191.083252 
L 212.437705 190.639367 
L 213.735631 196.85376 
L 214.199176 196.85376 
L 214.415497 195.300161 
L 214.570012 192.423857 
L 214.693624 192.192965 
L 215.188072 192.192965 
L 215.528005 193.746563 
L 215.651617 193.746563 
L 215.68252 174.293085 
L 215.775229 174.412608 
L 216.393289 175.168428 
L 217.134961 180.702841 
L 217.289476 180.81421 
L 218.000245 176.182853 
L 218.062051 176.213097 
L 218.278372 176.213097 
L 219.329074 187.088285 
L 219.545395 188.197998 
L 220.039843 185.312744 
L 220.070746 185.312744 
L 220.565194 182.42749 
L 220.781515 182.42749 
L 220.93603 183.315261 
L 220.966933 183.093318 
L 221.152351 182.42749 
L 221.739508 182.42749 
L 221.770411 165.774212 
L 221.86312 165.947499 
L 221.894023 166.00474 
L 223.40827 178.674315 
L 223.810009 178.876409 
L 223.902718 178.876409 
L 224.273554 176.213097 
L 224.304457 176.43504 
L 224.551681 178.876409 
L 225.695092 193.746563 
L 225.818704 193.746563 
L 225.942316 193.968506 
L 226.035025 193.968506 
L 226.374958 190.861309 
L 226.653085 188.197998 
L 226.8076 188.197998 
L 226.931212 187.976056 
L 227.11663 189.973539 
L 227.73469 197.297645 
L 227.889205 197.963473 
L 227.920108 189.383614 
L 228.012817 189.396011 
L 228.229138 189.424325 
L 229.27984 196.187932 
L 229.557967 196.187932 
L 229.774288 195.300161 
L 230.083318 195.300161 
L 230.237833 194.856276 
L 230.546863 194.856276 
L 231.319438 197.963473 
L 231.44305 197.963473 
L 231.844789 195.078219 
L 231.968401 189.696915 
L 232.184722 188.134586 
L 232.277431 188.15388 
L 232.431946 188.185519 
L 232.617364 188.641883 
L 232.771879 188.641883 
L 233.050006 190.417424 
L 233.080909 190.195482 
L 233.60626 187.088285 
L 233.637163 187.088285 
L 233.729872 186.6444 
L 233.853484 180.231135 
L 234.347932 177.461692 
L 234.378835 177.48949 
L 234.595156 176.656983 
L 234.749671 176.656983 
L 236.140306 191.971022 
L 236.294821 191.971022 
L 236.480239 191.305195 
L 236.542045 191.305195 
L 237.098298 187.976056 
L 237.22191 187.976056 
L 237.345522 187.53217 
L 237.376425 176.18383 
L 237.469134 176.282879 
L 238.210806 177.030878 
L 239.168799 183.537203 
L 239.38512 183.537203 
L 239.848665 186.200515 
L 240.034083 186.200515 
L 241.301106 189.529654 
L 241.517427 189.529654 
L 241.85736 192.63685 
L 242.16639 196.187932 
L 243.835152 204.649845 
L 243.927861 204.565916 
L 244.082376 204.428357 
L 244.3296 201.496437 
L 244.762242 193.302678 
L 245.071272 188.863826 
L 245.194884 188.863826 
L 245.627526 191.305195 
L 245.751138 191.305195 
L 245.998362 189.529654 
L 246.121974 183.707574 
L 246.400101 181.812741 
L 246.49281 181.870388 
L 246.740034 181.983605 
L 246.894549 182.205548 
L 246.925452 182.205548 
L 247.327191 184.424974 
L 247.667124 184.424974 
L 247.852542 183.759146 
L 247.883445 183.759146 
L 248.068863 182.42749 
L 248.316087 181.317777 
L 248.501505 181.317777 
L 248.625117 182.871376 
L 249.119565 188.419941 
L 249.89214 193.302678 
L 249.923043 193.302678 
L 249.984849 193.524621 
L 251.839029 198.185415 
L 252.580701 202.84621 
L 252.704313 202.84621 
L 253.106052 205.065636 
L 253.415082 205.065636 
L 253.631403 203.955923 
L 253.755015 198.313908 
L 254.187657 198.11325 
L 254.403978 196.898506 
L 254.558493 195.965989 
L 254.589396 195.965989 
L 254.898426 193.080735 
L 255.238359 189.529654 
L 255.485583 189.529654 
L 255.516486 180.519647 
L 255.609195 180.589082 
L 255.640098 180.612028 
L 256.196352 184.212184 
L 256.876218 184.424974 
L 257.061636 184.424974 
L 259.224846 186.402848 
L 259.379361 186.422457 
L 259.657488 185.090802 
L 259.688391 185.090802 
L 260.028324 188.197998 
L 260.337354 192.63685 
L 260.460966 194.190448 
L 260.70819 196.409874 
L 260.831802 196.409874 
L 261.079026 195.300161 
L 261.233541 195.300161 
L 261.449862 196.187932 
L 261.542571 196.187932 
L 262.407855 190.639367 
L 262.531467 190.639367 
L 263.551266 201.070669 
L 263.79849 202.180382 
L 264.323841 202.180382 
L 264.756483 203.955923 
L 265.281833 203.955923 
L 265.436348 202.84621 
L 265.55996 188.811457 
L 266.270729 183.243177 
L 266.363438 183.294527 
L 266.579759 183.411838 
L 267.074207 186.363153 
L 267.599558 186.422457 
L 267.877685 186.422457 
L 268.0322 185.978572 
L 268.217618 185.978572 
L 268.248521 184.087549 
L 268.34123 184.131292 
L 268.526648 184.203031 
L 268.897484 181.761663 
L 268.928387 181.983605 
L 269.082902 182.649433 
L 269.546447 179.518663 
L 269.57735 179.542237 
L 269.700962 179.542237 
L 269.917283 181.317777 
L 269.948186 181.317777 
L 270.071798 181.761663 
L 270.689858 190.861309 
L 271.091597 190.861309 
L 271.1225 187.651818 
L 271.215209 187.674232 
L 271.43153 187.725475 
L 272.482232 194.412391 
L 272.513135 194.412391 
L 272.544038 179.143956 
L 272.636747 179.226686 
L 273.347516 179.825405 
L 273.532934 180.916392 
L 273.563837 180.702841 
L 273.90377 178.642494 
L 273.965576 178.694819 
L 274.460024 179.098351 
L 274.614539 178.432524 
L 274.83086 176.656983 
L 274.861763 176.656983 
L 274.954472 176.43504 
L 275.047181 176.656983 
L 275.201696 176.213097 
L 275.356211 176.213097 
L 275.44892 176.656983 
L 275.479823 176.43504 
L 275.541629 176.43504 
L 275.943368 180.208064 
L 276.128786 180.208064 
L 276.37601 178.876409 
L 276.654137 180.208064 
L 276.932264 178.876409 
L 277.024973 178.876409 
L 277.210391 180.873892 
L 277.519421 183.759146 
L 277.643033 184.646916 
L 278.662832 186.373137 
L 278.971862 186.422457 
L 279.589922 182.649433 
L 279.77534 182.649433 
L 279.929855 178.500814 
L 280.146176 176.878925 
L 280.764236 172.440073 
L 280.795139 172.662016 
L 280.826042 172.883958 
L 281.475005 180.65195 
L 281.845841 182.649433 
L 282.031259 182.649433 
L 282.062162 179.707784 
L 282.154871 179.778644 
L 282.216677 179.825405 
L 284.905238 201.514554 
L 285.090656 202.180382 
L 285.152462 202.180382 
L 285.523298 199.960956 
L 285.64691 196.955465 
L 285.95594 193.746563 
L 286.357679 189.529654 
L 286.821224 185.756629 
L 286.88303 185.978572 
L 286.944836 178.817978 
L 287.006642 179.10539 
L 288.026441 183.315261 
L 288.088247 183.315261 
L 289.417076 191.971022 
L 289.540688 191.971022 
L 290.035136 188.863826 
L 290.745905 193.302678 
L 290.838614 193.302678 
L 290.993129 191.527137 
L 291.178547 186.190285 
L 291.703898 176.878925 
L 291.858413 176.878925 
L 291.920219 176.656983 
L 292.630988 182.205548 
L 293.094533 182.205548 
L 293.125436 175.082695 
L 293.218145 175.185153 
L 293.465369 176.141414 
L 293.990719 176.656983 
L 294.392458 174.437557 
L 294.454264 174.437557 
L 296.092123 185.534687 
L 296.153929 185.534687 
L 296.277541 186.200515 
L 296.308444 183.101977 
L 296.401153 183.152201 
L 296.926504 183.315261 
L 296.957407 183.315261 
L 297.204631 184.646916 
L 297.235534 184.424974 
L 297.668176 181.317777 
L 297.791788 159.820314 
L 298.131721 157.837659 
L 298.193527 157.988754 
L 299.15152 166.254711 
L 299.985901 167.557336 
L 301.0057 175.54727 
L 301.067506 175.54727 
L 301.407439 178.654466 
L 301.778275 182.871376 
L 302.767171 192.192965 
L 302.828977 191.971022 
L 303.045298 191.082807 
L 303.076201 191.083252 
L 303.292522 190.193258 
L 303.323425 190.195482 
L 303.47794 189.751596 
L 303.539746 189.751596 
L 303.570649 181.800158 
L 303.663358 181.860828 
L 303.694261 181.88088 
L 303.725164 181.665738 
L 303.817873 181.726619 
L 304.683157 182.205548 
L 305.270314 185.312744 
L 305.579344 185.312744 
L 306.011986 182.187312 
L 306.104695 182.205548 
L 306.135598 182.42749 
L 307.371718 209.504488 
L 307.49533 207.511957 
L 307.835263 207.285062 
L 307.897069 207.285062 
L 308.42242 204.177866 
L 308.669644 204.177866 
L 308.793256 203.512038 
L 308.885965 203.512038 
L 309.874861 211.501972 
L 310.183891 211.501972 
L 311.080078 205.731464 
L 311.450914 205.731464 
L 311.636332 206.619234 
L 311.82175 205.953406 
L 311.883556 205.953406 
L 313.243288 214.609168 
L 313.645027 217.272479 
L 313.706833 212.56496 
L 313.799542 212.895845 
L 313.861348 212.805884 
L 314.108572 212.453414 
L 314.726632 206.175349 
L 314.973856 204.177866 
L 315.190177 203.290095 
L 315.437401 203.290095 
L 315.53011 197.832918 
L 315.808237 199.54224 
L 315.900946 199.491602 
L 316.117267 199.375835 
L 316.828036 194.634334 
L 316.982551 194.634334 
L 317.198872 193.746563 
L 317.229775 193.746563 
L 317.260678 186.572943 
L 317.353387 186.603021 
L 317.971447 186.794166 
L 318.249574 187.976056 
L 318.836731 187.976056 
L 319.083955 185.534687 
L 319.300276 183.981089 
L 319.918336 180.208064 
L 319.980142 180.208064 
L 320.752717 182.871376 
L 320.938135 183.981089 
L 320.969038 183.759146 
L 321.525292 179.098351 
L 321.587098 178.210581 
L 321.71071 165.236505 
L 322.575993 149.127078 
L 322.761411 148.07541 
L 322.915926 147.804444 
L 323.070441 147.804444 
L 323.904822 155.794378 
L 324.337464 155.794378 
L 324.368367 147.759494 
L 324.461076 148.033366 
L 324.739203 148.834696 
L 326.56248 166.22568 
L 326.995122 166.22568 
L 327.242346 167.335393 
L 327.335055 167.335393 
L 327.365958 159.632624 
L 329.127429 173.105901 
L 329.158332 173.105901 
L 329.189235 172.587144 
L 329.281944 172.662016 
L 329.590974 172.662016 
L 329.930907 174.437557 
L 329.992713 174.437557 
L 330.116325 175.991155 
L 330.456258 179.320294 
L 330.672579 180.208064 
L 330.827094 180.208064 
L 331.537863 182.649433 
L 331.599669 182.649433 
L 332.341341 187.310228 
L 332.403147 187.310228 
L 332.557662 188.197998 
L 332.681274 188.419941 
L 333.175722 184.203031 
L 333.484752 180.118571 
L 333.546558 180.163498 
L 333.793782 180.208064 
L 334.041006 180.208064 
L 334.195521 180.65195 
L 334.350036 180.208064 
L 334.473648 180.208064 
L 335.153514 185.312744 
L 335.431641 187.53217 
L 335.462544 183.247112 
L 335.555253 183.296956 
L 336.235119 183.537203 
L 336.296925 183.537203 
L 338.985486 229.874489 
L 339.047292 229.718338 
L 339.387225 227.481839 
L 339.603546 227.481839 
L 339.819867 225.706298 
L 339.85077 225.706298 
L 340.190703 222.155217 
L 340.314315 210.54022 
L 340.46883 208.13381 
L 340.685151 205.476854 
L 340.716054 205.446246 
L 340.870569 205.058048 
L 341.055987 204.883962 
L 341.241405 205.870178 
L 341.334114 205.779712 
L 341.797659 205.343733 
L 342.261204 202.402325 
L 342.786555 202.402325 
L 343.188294 192.758967 
L 344.053578 192.675211 
L 345.196989 199.960956 
L 345.320601 199.960956 
L 345.475116 201.070669 
L 345.506019 200.848727 
L 346.154982 196.85376 
L 346.278594 196.85376 
L 346.402206 192.680872 
L 346.464012 192.675211 
L 347.143878 197.297645 
L 347.174781 197.075702 
L 347.731035 192.414908 
L 348.287289 185.978572 
L 348.565416 185.978572 
L 348.719931 187.754113 
L 348.936252 189.529654 
L 349.059864 189.529654 
L 349.461603 191.527582 
L 349.554312 191.527137 
L 349.677924 191.305195 
L 350.079663 193.524621 
L 350.759529 188.191771 
L 351.315782 178.654466 
L 351.532103 177.100868 
L 351.563006 177.100868 
L 351.748424 175.769212 
L 351.779327 149.489921 
L 351.872036 149.790751 
L 352.42829 151.763696 
L 352.73732 153.151017 
L 353.04635 153.98957 
L 354.035246 162.593934 
L 354.5915 163.784312 
L 354.838724 164.894025 
L 354.931433 164.618709 
L 354.962336 164.672082 
L 354.993239 164.618709 
L 355.024142 164.672082 
L 355.642202 169.554819 
L 355.82762 172.218131 
L 356.878322 181.983605 
L 357.001934 181.983605 
L 357.218255 179.764179 
L 357.496382 177.322811 
L 357.805412 174.437557 
L 358.145345 170.886475 
L 358.238054 170.886475 
L 358.361666 167.942815 
L 358.825211 164.672082 
L 359.350562 161.564886 
L 359.505077 161.564886 
L 359.53598 151.621667 
L 359.628689 151.874966 
L 359.721398 152.125052 
L 359.721398 152.125052 
" style="fill:none;stroke:#1f77b4;stroke-linecap:square;stroke-opacity:0.7;stroke-width:1.5;"/>
   </g>
   <g id="line2d_30">
    <path clip-path="url(#p7339af1ce6)" d="M 56.284852 80.333892 
L 56.439367 172.809978 
L 56.655688 182.768941 
L 56.686591 183.378673 
L 56.964718 143.056802 
L 57.181039 128.421457 
L 57.211942 130.449964 
L 57.39736 140.31838 
L 57.428263 138.739841 
L 57.644584 149.382703 
L 57.675487 147.881642 
L 57.891808 155.710626 
L 57.922711 154.314761 
L 58.139032 160.378766 
L 58.169935 159.08772 
L 58.386256 165.572719 
L 58.726189 169.110934 
L 59.807794 208.674616 
L 59.900503 208.23302 
L 59.931406 208.09077 
L 60.333145 191.305195 
L 60.858496 157.045598 
L 61.136623 149.866544 
L 61.260235 148.149688 
L 61.322041 148.675975 
L 61.600168 150.89368 
L 61.631071 150.488164 
L 62.218228 143.581785 
L 62.249131 143.827782 
L 62.589064 146.37535 
L 62.9599 152.439669 
L 63.794281 156.740363 
L 64.319632 164.093841 
L 65.154012 166.644905 
L 66.637356 184.69976 
L 67.50264 185.20787 
L 68.244312 191.305195 
L 68.553342 191.305195 
L 69.109596 186.503552 
L 69.171402 186.526526 
L 69.542238 186.659884 
L 70.160298 190.811989 
L 70.716552 190.830958 
L 71.025582 188.519304 
L 71.118291 188.53668 
L 71.705448 188.641883 
L 89.412867 80.333892 
L 90.309054 80.333892 
L 90.556278 101.986829 
L 90.587181 101.471283 
L 90.958017 94.719061 
L 91.328853 56.794525 
L 91.761495 42.881078 
L 91.91601 38.556461 
L 91.946913 39.042245 
L 92.564973 67.771103 
L 94.480958 151.012043 
L 94.635473 152.176585 
L 94.666376 151.763696 
L 95.315339 144.071256 
L 95.624369 146.37535 
L 97.69487 183.14554 
L 98.127512 183.544964 
L 98.560154 178.728447 
L 98.62196 178.811737 
L 99.116408 179.440338 
L 99.456341 182.198127 
L 100.290722 182.888832 
L 100.630655 178.907856 
L 101.40323 166.67636 
L 101.526842 165.804214 
L 101.588648 165.932359 
L 102.299417 167.318524 
L 103.25741 175.346932 
L 103.751858 175.892514 
L 104.091791 173.698057 
L 104.153597 173.771267 
L 104.49353 174.163286 
L 104.895269 172.218131 
L 105.482426 172.218131 
L 105.884165 174.437557 
L 106.03868 174.437557 
L 106.533128 178.654466 
L 107.212994 186.866343 
L 107.522024 188.419941 
L 107.800151 188.419941 
L 108.016472 186.866343 
L 108.047375 172.016729 
L 108.140084 172.146472 
L 109.592525 173.972963 
L 109.777943 172.847042 
L 109.870652 172.883958 
L 110.117876 172.883958 
L 110.581421 176.213097 
L 112.188377 174.14226 
L 112.250183 174.214678 
L 113.14637 175.103384 
L 114.784229 187.524609 
L 114.876938 187.53217 
L 115.587707 181.761663 
L 115.865834 179.320294 
L 116.020349 179.320294 
L 116.576603 183.981089 
L 117.101954 189.973539 
L 117.750917 189.973539 
L 117.874529 183.39529 
L 117.967238 182.751157 
L 118.059947 182.804287 
L 118.770716 183.093318 
L 118.801619 183.093318 
L 118.987037 183.537203 
L 119.234261 183.537203 
L 119.574194 185.534687 
L 119.94503 183.537203 
L 119.975933 183.537203 
L 120.501284 187.310228 
L 122.911717 211.058086 
L 123.220747 211.058086 
L 123.375262 210.614201 
L 123.498874 210.614201 
L 123.746098 209.504488 
L 123.900613 209.504488 
L 124.116934 208.616718 
L 124.17874 208.616718 
L 124.333255 208.172833 
L 124.889509 208.172833 
L 125.136733 207.063119 
L 125.260345 207.063119 
L 126.03292 200.848727 
L 126.063823 189.327978 
L 126.156532 189.341101 
L 126.403756 189.375259 
L 126.774592 186.603021 
L 126.867301 186.632719 
L 127.608973 186.857447 
L 127.825294 184.646916 
L 128.257936 176.878925 
L 128.597869 171.108418 
L 128.721481 155.862818 
L 128.752384 155.696821 
L 128.783287 155.774909 
L 129.43225 157.106491 
L 129.926698 158.216388 
L 132.059005 186.422457 
L 132.21352 186.422457 
L 132.244423 184.777471 
L 132.337132 184.816953 
L 132.738871 184.868859 
L 132.924289 184.868859 
L 135.427432 204.399808 
L 135.952783 204.399808 
L 135.983686 188.466394 
L 136.076395 188.486062 
L 136.200007 188.511867 
L 137.158 195.81044 
L 137.250709 195.781744 
L 137.343418 195.753411 
L 138.177799 189.973539 
L 138.579538 189.973539 
L 139.135792 185.312744 
L 139.475725 181.983605 
L 139.568434 181.53972 
L 139.599337 181.761663 
L 139.877464 183.315261 
L 140.371912 183.315261 
L 141.268099 190.417424 
L 141.453517 191.527137 
L 141.515323 191.527137 
L 141.886159 189.085769 
L 141.917062 189.307711 
L 142.318801 191.74908 
L 143.802145 204.621751 
L 143.863951 204.621751 
L 144.203884 201.514554 
L 144.543817 197.519588 
L 144.57472 197.74153 
L 144.698332 197.519588 
L 145.378198 197.519588 
L 145.409101 181.866256 
L 145.50181 181.930907 
L 145.656325 182.036711 
L 147.016057 191.988796 
L 147.66502 191.971022 
L 147.97405 190.417424 
L 148.28308 190.417424 
L 148.375789 189.751596 
L 148.499401 169.317874 
L 148.653916 168.292713 
L 148.715722 168.398274 
L 149.271976 169.306478 
L 149.82823 173.201825 
L 150.13726 173.577414 
L 150.662611 170.400781 
L 150.724417 170.44259 
L 151.126155 170.44259 
L 152.671305 173.105901 
L 152.82582 173.105901 
L 153.412977 177.322811 
L 154.278261 185.978572 
L 155.019933 195.078219 
L 156.472374 202.84621 
L 156.688695 202.84621 
L 156.997725 199.960956 
L 157.553979 190.417424 
L 157.7703 186.422457 
L 157.863009 177.639939 
L 157.893912 177.668891 
L 158.326554 178.061706 
L 159.778995 191.971022 
L 159.902607 191.971022 
L 160.458861 188.641883 
L 161.076921 188.641883 
L 161.107824 188.419941 
L 161.138727 178.278129 
L 161.231436 178.362537 
L 162.034914 179.050695 
L 162.065817 178.849232 
L 162.158526 178.925029 
L 162.529362 179.098351 
L 163.02381 179.098351 
L 164.198124 189.973539 
L 164.383542 189.973539 
L 164.630766 187.53217 
L 164.723475 186.200515 
L 164.87799 180.908698 
L 165.125214 178.851501 
L 165.465147 175.991155 
L 165.619662 175.54727 
L 166.237722 179.320294 
L 166.299528 179.320294 
L 168.370029 179.986122 
L 168.771768 177.766696 
L 168.864477 177.766696 
L 168.89538 172.578787 
L 168.988089 172.6951 
L 169.266216 173.035529 
L 169.358925 172.473701 
L 169.451634 172.587144 
L 169.575246 172.662016 
L 170.471433 166.447623 
L 170.595045 152.223997 
L 171.398523 148.149688 
L 171.460329 148.326555 
L 171.892971 149.358042 
L 172.263807 147.360559 
L 172.29471 147.360559 
L 172.387419 148.692215 
L 172.881867 159.34546 
L 175.879458 192.858793 
L 176.219391 192.858793 
L 176.497518 193.968506 
L 176.559324 193.968506 
L 176.713839 194.412391 
L 176.837451 194.412391 
L 177.23919 190.861309 
L 177.54822 187.976056 
L 177.919056 185.978572 
L 178.135377 185.978572 
L 181.16387 207.063119 
L 181.380191 207.063119 
L 182.832632 206.509852 
L 183.203468 202.624267 
L 183.821528 195.078219 
L 184.068752 195.078219 
L 184.25417 195.744047 
L 184.748618 195.744047 
L 184.841327 196.409874 
L 186.479186 217.050537 
L 186.880925 219.713848 
L 186.911828 219.491905 
L 187.313567 217.272479 
L 187.375373 217.272479 
L 187.777112 220.157733 
L 187.838918 219.935791 
L 188.333366 219.935791 
L 188.456978 205.07915 
L 188.611493 204.919729 
L 188.858717 203.411155 
L 189.353165 202.986384 
L 189.693098 200.810231 
L 190.002128 200.610964 
L 190.43477 197.859508 
L 190.960121 197.74153 
L 190.991024 197.74153 
L 191.763599 202.022745 
L 191.856308 201.95844 
L 192.072629 201.95844 
L 192.412562 200.182899 
L 192.628883 200.182899 
L 192.937913 201.736497 
L 193.061525 201.736497 
L 193.401458 203.512038 
L 193.586876 203.512038 
L 193.710488 185.885666 
L 194.050421 186.020847 
L 194.204936 184.089572 
L 195.193832 170.411016 
L 195.595571 168.026082 
L 195.657377 168.120521 
L 195.99731 168.445106 
L 196.831691 162.674599 
L 196.955303 149.510808 
L 196.986206 149.361398 
L 197.048012 149.541801 
L 198.036908 152.230792 
L 198.747677 159.123517 
L 199.303931 165.781795 
L 199.334834 165.781795 
L 199.70567 169.110934 
L 200.292827 169.110934 
L 200.32373 155.940714 
L 200.416439 156.172359 
L 200.570954 156.551763 
L 202.950485 178.210581 
L 203.259515 178.210581 
L 203.383127 178.432524 
L 203.537642 178.432524 
L 203.753963 176.213097 
L 204.03209 173.771729 
L 204.186605 173.327844 
L 204.248411 173.327844 
L 204.619247 171.33036 
L 204.65015 171.33036 
L 205.144598 175.103384 
L 205.824464 175.103384 
L 206.009882 174.437557 
L 206.442524 174.437557 
L 206.473427 167.991896 
L 208.667539 191.083252 
L 209.100181 191.083252 
L 209.254696 191.74908 
L 209.594629 189.751596 
L 209.841853 190.861309 
L 210.243592 190.861309 
L 211.108876 196.409874 
L 211.263391 196.409874 
L 211.603324 194.634334 
L 211.634227 194.856276 
L 211.66513 194.634334 
L 212.344996 190.417424 
L 212.468608 190.417424 
L 212.623123 189.307711 
L 214.106467 196.85376 
L 214.75543 196.85376 
L 214.786333 196.631817 
L 214.940848 193.766252 
L 215.06446 193.524621 
L 215.744326 193.524621 
L 215.99155 194.412391 
L 216.022453 194.412391 
L 216.053356 175.971923 
L 216.146065 176.0789 
L 216.856834 176.851979 
L 217.598506 182.232069 
L 217.753021 182.326189 
L 218.556499 177.544753 
L 218.741917 177.544753 
L 219.576298 186.200515 
L 219.854425 187.53217 
L 220.00894 187.53217 
L 220.101649 186.866343 
L 220.225261 183.892132 
L 220.348873 183.951675 
L 220.874224 181.095835 
L 220.966933 181.095835 
L 221.275963 182.649433 
L 221.337769 182.649433 
L 221.492284 183.093318 
L 221.924926 183.093318 
L 221.955829 164.651579 
L 222.048538 164.834976 
L 222.17215 165.075614 
L 223.779106 178.674315 
L 224.088136 178.876409 
L 224.737099 174.881442 
L 225.077032 177.322811 
L 226.065928 193.746563 
L 226.096831 193.746563 
L 226.313152 194.634334 
L 226.405861 194.634334 
L 227.11663 189.973539 
L 227.487466 193.302678 
L 227.827399 196.631817 
L 228.074623 198.407358 
L 228.105526 188.628255 
L 228.198235 188.645752 
L 228.507265 188.702456 
L 229.650676 196.187932 
L 230.114221 196.187932 
L 230.330542 195.300161 
L 230.454154 195.300161 
L 230.608669 194.856276 
L 231.103117 194.856276 
L 231.597565 196.631817 
L 231.721177 196.631817 
L 232.308334 192.414908 
L 232.431946 186.939864 
L 232.462849 186.719604 
L 232.555558 186.747852 
L 232.710073 186.794166 
L 233.080909 188.641883 
L 233.946193 188.641883 
L 234.131611 186.6444 
L 234.193417 185.756629 
L 234.317029 180.823306 
L 235.027798 176.656983 
L 236.325724 191.305195 
L 236.572948 191.305195 
L 236.758365 190.639367 
L 236.820171 190.639367 
L 237.283716 187.976056 
L 237.500037 187.976056 
L 237.623649 187.53217 
L 237.654552 175.346932 
L 237.747261 175.452151 
L 238.488933 176.246458 
L 239.354217 182.205548 
L 239.570538 182.205548 
L 240.219501 186.200515 
L 241.764651 190.195482 
L 241.888263 190.195482 
L 242.228196 193.302678 
L 242.629935 197.519588 
L 244.02057 203.398221 
L 244.113279 203.321195 
L 244.360503 203.120511 
L 244.700436 199.458188 
L 245.411205 190.195482 
L 245.596623 189.085769 
L 245.627526 189.307711 
L 245.87475 190.417424 
L 245.998362 190.417424 
L 246.554616 186.200515 
L 246.678228 182.490773 
L 246.770937 181.870388 
L 246.863646 181.927338 
L 247.018161 181.983605 
L 247.759833 185.756629 
L 247.945251 185.756629 
L 248.161572 184.424974 
L 248.285184 182.113632 
L 248.717826 179.986122 
L 249.644916 187.310228 
L 249.923043 189.751596 
L 250.170267 191.527137 
L 252.333477 201.070669 
L 252.766119 203.512038 
L 252.98244 203.512038 
L 253.136955 203.955923 
L 253.6005 206.397292 
L 253.755015 206.397292 
L 253.940433 205.731464 
L 254.064045 200.803782 
L 254.156754 200.974893 
L 254.187657 200.725119 
L 254.280366 200.895307 
L 254.311269 200.647748 
L 254.403978 200.81702 
L 254.589396 199.359563 
L 254.620299 199.343357 
L 254.83662 197.519588 
L 254.867523 197.519588 
L 255.392874 191.527137 
L 255.671001 191.527137 
L 255.701904 180.305836 
L 255.794613 180.378042 
L 256.103643 180.612028 
L 256.474479 182.733299 
L 257.30886 183.093318 
L 257.339763 183.093318 
L 259.502973 187.754113 
L 259.750197 187.754113 
L 259.935615 187.088285 
L 260.059227 187.088285 
L 260.430063 190.417424 
L 260.584578 191.083252 
L 261.048123 194.856276 
L 261.109929 194.412391 
L 261.357153 193.302678 
L 261.449862 193.302678 
L 261.851601 195.522104 
L 261.913407 195.522104 
L 262.098825 194.856276 
L 262.25334 194.856276 
L 262.469661 193.302678 
L 262.624176 191.305195 
L 262.809594 190.639367 
L 262.902303 190.639367 
L 264.014811 202.402325 
L 264.169326 202.84621 
L 264.663774 202.84621 
L 264.910998 203.955923 
L 265.621766 203.955923 
L 265.745378 188.777374 
L 265.807184 188.285567 
L 265.899893 188.30597 
L 266.147117 188.359054 
L 266.641565 184.665886 
L 266.703371 184.694138 
L 267.136013 184.885367 
L 267.352334 185.654925 
L 267.939491 185.756629 
L 268.155812 185.756629 
L 268.310327 185.312744 
L 268.588454 185.312744 
L 268.619357 182.681658 
L 268.712066 182.73424 
L 269.237417 179.764179 
L 269.391932 180.208064 
L 269.700962 178.184339 
L 269.731865 178.210581 
L 269.762768 178.432524 
L 269.793671 178.157992 
L 269.824574 178.184339 
L 269.855477 178.210581 
L 270.442634 182.42749 
L 270.937082 189.529654 
L 271.555142 189.529654 
L 271.586045 187.696372 
L 271.678754 187.718243 
L 271.709657 187.725475 
L 272.945777 180.68835 
L 273.038486 180.76041 
L 273.687449 181.238683 
L 273.90377 179.735846 
L 273.996479 179.809225 
L 274.861763 180.430007 
L 275.325308 177.766696 
L 275.819756 177.766696 
L 275.943368 177.544753 
L 276.314204 179.542237 
L 276.654137 179.542237 
L 276.932264 180.873892 
L 277.3031 178.876409 
L 277.395809 178.876409 
L 277.828451 181.983605 
L 278.84825 184.95101 
L 279.342698 185.090802 
L 279.77534 182.649433 
L 279.960758 182.649433 
L 280.115273 180.873892 
L 280.671527 174.437557 
L 281.01146 172.440073 
L 281.536811 176.43504 
L 281.62952 176.43504 
L 282.216677 179.986122 
L 282.402095 179.986122 
L 285.183365 202.180382 
L 285.523298 202.180382 
L 285.894134 199.960956 
L 286.017746 198.044342 
L 286.048649 198.030728 
L 286.419485 194.412391 
L 286.728515 191.527137 
L 287.130254 189.307711 
L 287.161157 189.307711 
L 287.19206 179.750699 
L 287.284769 179.825405 
L 288.273665 180.566036 
L 289.787912 192.192965 
L 289.911524 192.192965 
L 290.436875 189.085769 
L 290.653196 189.085769 
L 290.931323 190.417424 
L 291.085838 190.417424 
L 291.302159 188.197998 
L 291.549383 183.093318 
L 291.982025 175.54727 
L 292.074734 175.54727 
L 293.094533 182.205548 
L 293.279951 182.205548 
L 293.310854 175.082695 
L 293.403563 175.185153 
L 293.836205 177.689084 
L 294.330652 177.988638 
L 294.361555 177.988638 
L 294.763294 175.769212 
L 294.8251 175.769212 
L 295.257742 178.210581 
L 295.44316 178.210581 
L 295.597675 179.986122 
L 296.030317 184.646916 
L 296.246638 185.534687 
L 296.339347 185.534687 
L 296.462959 186.200515 
L 296.493862 183.101977 
L 296.586571 183.152201 
L 297.111922 183.315261 
L 297.142825 183.315261 
L 297.699079 186.422457 
L 297.853594 185.312744 
L 297.977206 162.51547 
L 298.564363 158.990752 
L 298.626169 159.135986 
L 298.687975 159.279919 
L 299.336938 164.510842 
L 300.171319 165.972352 
L 301.407439 174.215614 
L 301.531051 174.215614 
L 301.870984 177.322811 
L 301.963693 178.654466 
L 303.138007 190.417424 
L 303.725164 190.417424 
L 303.756067 179.354439 
L 303.848776 179.432719 
L 304.003291 179.560932 
L 304.312321 180.982283 
L 305.146702 181.53972 
L 305.424829 182.649433 
L 306.135598 182.649433 
L 306.321016 181.761663 
L 306.413725 182.42749 
L 307.649845 209.504488 
L 307.680748 208.187239 
L 308.020681 207.95089 
L 308.082487 207.95089 
L 308.700547 204.177866 
L 308.855062 204.177866 
L 308.978674 202.31247 
L 309.071383 202.246027 
L 310.245697 211.501972 
L 310.523824 211.501972 
L 310.58563 211.723914 
L 310.616533 211.501972 
L 310.647436 211.280029 
L 310.740145 211.501972 
L 310.925563 210.836144 
L 310.956466 210.836144 
L 311.172787 209.948373 
L 311.20369 209.948373 
L 311.420011 209.060603 
L 311.450914 209.060603 
L 311.636332 208.172833 
L 311.759944 208.394775 
L 311.82175 208.394775 
L 312.161683 206.619234 
L 313.026967 209.54096 
L 313.119676 209.504488 
L 313.181482 209.504488 
L 313.98496 215.274996 
L 314.29399 213.817815 
L 314.386699 213.680264 
L 315.437401 205.287579 
L 315.622819 205.287579 
L 315.746431 199.913031 
L 315.993655 199.771047 
L 316.086364 200.173803 
L 316.179073 200.119616 
L 316.395394 199.995718 
L 317.106163 195.300161 
L 317.260678 195.300161 
L 317.415193 194.412391 
L 317.446096 186.542478 
L 317.538805 186.572943 
L 318.249574 186.794166 
L 318.527701 187.976056 
L 319.114858 187.976056 
L 319.362082 185.534687 
L 319.763821 181.317777 
L 320.196463 178.876409 
L 320.258269 178.876409 
L 321.185359 183.315261 
L 321.308971 183.315261 
L 321.741613 179.764179 
L 321.865225 177.544753 
L 321.988837 165.236505 
L 322.483284 157.089043 
L 322.915926 150.421031 
L 323.16315 148.470272 
L 323.441277 148.470272 
L 324.182949 156.460206 
L 324.522882 156.460206 
L 324.553785 146.489861 
L 324.646494 146.775309 
L 325.01733 147.881642 
L 326.964219 164.450139 
L 327.551376 168.001221 
L 327.613182 168.001221 
L 327.644085 160.336459 
L 327.736794 160.53164 
L 329.436459 173.771729 
L 329.467362 172.473701 
L 329.560071 172.587144 
L 329.745489 172.662016 
L 329.869101 172.662016 
L 330.116325 173.771729 
L 330.363549 173.771729 
L 330.57987 175.991155 
L 330.827094 177.988638 
L 330.950706 178.210581 
L 331.012512 178.210581 
L 331.81599 182.649433 
L 331.877796 182.649433 
L 332.619468 187.310228 
L 332.681274 187.310228 
L 332.835789 188.197998 
L 332.959401 188.419941 
L 333.237528 188.419941 
L 333.701073 185.090802 
L 333.731976 183.907108 
L 333.824685 183.951675 
L 334.133715 183.981089 
L 334.59726 183.981089 
L 334.937193 185.756629 
L 335.21532 185.756629 
L 335.586156 188.419941 
L 335.617059 188.197998 
L 335.709768 187.53217 
L 335.740671 183.247112 
L 335.83338 183.296956 
L 336.513246 183.537203 
L 336.575052 183.537203 
L 339.263613 229.874489 
L 339.356322 229.640735 
L 339.54174 228.813495 
L 339.758061 228.813495 
L 340.345218 223.930757 
L 340.46883 222.155217 
L 340.592442 209.924541 
L 340.994181 204.814744 
L 341.210502 203.661742 
L 341.241405 203.635339 
L 341.612241 205.870178 
L 341.70495 205.779712 
L 342.075786 205.428815 
L 342.63204 201.736497 
L 343.064682 201.736497 
L 343.651839 193.471663 
L 344.517123 193.347611 
L 345.475116 199.295128 
L 345.506019 199.295128 
L 345.845952 201.070669 
L 346.433109 197.519588 
L 346.464012 197.519588 
L 346.587624 192.689452 
L 346.742139 192.675211 
L 347.422005 196.631817 
L 347.514714 196.631817 
L 347.916453 193.080735 
L 348.689028 183.537203 
L 348.81264 183.315261 
L 349.276185 185.978572 
L 349.337991 185.978572 
L 349.925148 189.307711 
L 350.203275 189.307711 
L 350.450499 190.417424 
L 350.605014 190.417424 
L 351.037656 186.6444 
L 351.686618 178.876409 
L 352.026551 176.43504 
L 352.057454 150.294061 
L 352.150163 150.589105 
L 353.324477 153.98957 
L 354.313373 162.593934 
L 354.807821 163.340426 
L 354.838724 163.340426 
L 354.993239 163.784312 
L 355.116851 163.784312 
L 355.240463 163.562369 
L 355.82762 168.445106 
L 356.105747 172.440073 
L 357.06374 180.65195 
L 357.280061 180.65195 
L 357.650897 178.654466 
L 357.6818 178.654466 
L 358.176248 174.437557 
L 358.485278 171.552303 
L 358.516181 171.33036 
L 358.639793 166.518572 
L 358.856114 165.075614 
L 358.948823 164.565122 
L 359.041532 164.672082 
L 359.196047 164.672082 
L 359.721398 161.564886 
L 359.968622 161.564886 
L 359.999525 153.532722 
L 360.092234 153.770784 
L 360.184943 154.005863 
L 360.184943 154.005863 
" style="fill:none;stroke:#ff7f0e;stroke-linecap:square;stroke-opacity:0.7;stroke-width:1.5;"/>
   </g>
   <g id="patch_3">
    <path d="M 40.603125 239.758125 
L 40.603125 22.318125 
" style="fill:none;stroke:#000000;stroke-linecap:square;stroke-linejoin:miter;stroke-width:0.8;"/>
   </g>
   <g id="patch_4">
    <path d="M 375.403125 239.758125 
L 375.403125 22.318125 
" style="fill:none;stroke:#000000;stroke-linecap:square;stroke-linejoin:miter;stroke-width:0.8;"/>
   </g>
   <g id="patch_5">
    <path d="M 40.603125 239.758125 
L 375.403125 239.758125 
" style="fill:none;stroke:#000000;stroke-linecap:square;stroke-linejoin:miter;stroke-width:0.8;"/>
   </g>
   <g id="patch_6">
    <path d="M 40.603125 22.318125 
L 375.403125 22.318125 
" style="fill:none;stroke:#000000;stroke-linecap:square;stroke-linejoin:miter;stroke-width:0.8;"/>
   </g>
   <g id="text_17">
    <!-- Bandwidth -->
    <g transform="translate(176.060625 16.318125)scale(0.12 -0.12)">
     <defs>
      <path d="M 19.671875 34.8125 
L 19.671875 8.109375 
L 35.5 8.109375 
Q 43.453125 8.109375 47.28125 11.40625 
Q 51.125 14.703125 51.125 21.484375 
Q 51.125 28.328125 47.28125 31.5625 
Q 43.453125 34.8125 35.5 34.8125 
z
M 19.671875 64.796875 
L 19.671875 42.828125 
L 34.28125 42.828125 
Q 41.5 42.828125 45.03125 45.53125 
Q 48.578125 48.25 48.578125 53.8125 
Q 48.578125 59.328125 45.03125 62.0625 
Q 41.5 64.796875 34.28125 64.796875 
z
M 9.8125 72.90625 
L 35.015625 72.90625 
Q 46.296875 72.90625 52.390625 68.21875 
Q 58.5 63.53125 58.5 54.890625 
Q 58.5 48.1875 55.375 44.234375 
Q 52.25 40.28125 46.1875 39.3125 
Q 53.46875 37.75 57.5 32.78125 
Q 61.53125 27.828125 61.53125 20.40625 
Q 61.53125 10.640625 54.890625 5.3125 
Q 48.25 0 35.984375 0 
L 9.8125 0 
z
" id="DejaVuSans-66"/>
     </defs>
     <use xlink:href="#DejaVuSans-66"/>
     <use x="68.603516" xlink:href="#DejaVuSans-97"/>
     <use x="129.882812" xlink:href="#DejaVuSans-110"/>
     <use x="193.261719" xlink:href="#DejaVuSans-100"/>
     <use x="256.738281" xlink:href="#DejaVuSans-119"/>
     <use x="338.525391" xlink:href="#DejaVuSans-105"/>
     <use x="366.308594" xlink:href="#DejaVuSans-100"/>
     <use x="429.785156" xlink:href="#DejaVuSans-116"/>
     <use x="468.994141" xlink:href="#DejaVuSans-104"/>
    </g>
   </g>
   <g id="legend_1">
    <g id="patch_7">
     <path d="M 247.517188 59.674375 
L 368.403125 59.674375 
Q 370.403125 59.674375 370.403125 57.674375 
L 370.403125 29.318125 
Q 370.403125 27.318125 368.403125 27.318125 
L 247.517188 27.318125 
Q 245.517188 27.318125 245.517188 29.318125 
L 245.517188 57.674375 
Q 245.517188 59.674375 247.517188 59.674375 
z
" style="fill:#ffffff;opacity:0.8;stroke:#cccccc;stroke-linejoin:miter;"/>
    </g>
    <g id="line2d_31">
     <path d="M 249.517188 35.416562 
L 269.517188 35.416562 
" style="fill:none;stroke:#1f77b4;stroke-linecap:square;stroke-opacity:0.7;stroke-width:1.5;"/>
    </g>
    <g id="line2d_32"/>
    <g id="text_18">
     <!-- input bandwidth -->
     <g transform="translate(277.517188 38.916562)scale(0.1 -0.1)">
      <defs>
       <path d="M 18.109375 8.203125 
L 18.109375 -20.796875 
L 9.078125 -20.796875 
L 9.078125 54.6875 
L 18.109375 54.6875 
L 18.109375 46.390625 
Q 20.953125 51.265625 25.265625 53.625 
Q 29.59375 56 35.59375 56 
Q 45.5625 56 51.78125 48.09375 
Q 58.015625 40.1875 58.015625 27.296875 
Q 58.015625 14.40625 51.78125 6.484375 
Q 45.5625 -1.421875 35.59375 -1.421875 
Q 29.59375 -1.421875 25.265625 0.953125 
Q 20.953125 3.328125 18.109375 8.203125 
z
M 48.6875 27.296875 
Q 48.6875 37.203125 44.609375 42.84375 
Q 40.53125 48.484375 33.40625 48.484375 
Q 26.265625 48.484375 22.1875 42.84375 
Q 18.109375 37.203125 18.109375 27.296875 
Q 18.109375 17.390625 22.1875 11.75 
Q 26.265625 6.109375 33.40625 6.109375 
Q 40.53125 6.109375 44.609375 11.75 
Q 48.6875 17.390625 48.6875 27.296875 
z
" id="DejaVuSans-112"/>
       <path d="M 8.5 21.578125 
L 8.5 54.6875 
L 17.484375 54.6875 
L 17.484375 21.921875 
Q 17.484375 14.15625 20.5 10.265625 
Q 23.53125 6.390625 29.59375 6.390625 
Q 36.859375 6.390625 41.078125 11.03125 
Q 45.3125 15.671875 45.3125 23.6875 
L 45.3125 54.6875 
L 54.296875 54.6875 
L 54.296875 0 
L 45.3125 0 
L 45.3125 8.40625 
Q 42.046875 3.421875 37.71875 1 
Q 33.40625 -1.421875 27.6875 -1.421875 
Q 18.265625 -1.421875 13.375 4.4375 
Q 8.5 10.296875 8.5 21.578125 
z
M 31.109375 56 
z
" id="DejaVuSans-117"/>
      </defs>
      <use xlink:href="#DejaVuSans-105"/>
      <use x="27.783203" xlink:href="#DejaVuSans-110"/>
      <use x="91.162109" xlink:href="#DejaVuSans-112"/>
      <use x="154.638672" xlink:href="#DejaVuSans-117"/>
      <use x="218.017578" xlink:href="#DejaVuSans-116"/>
      <use x="257.226562" xlink:href="#DejaVuSans-32"/>
      <use x="289.013672" xlink:href="#DejaVuSans-98"/>
      <use x="352.490234" xlink:href="#DejaVuSans-97"/>
      <use x="413.769531" xlink:href="#DejaVuSans-110"/>
      <use x="477.148438" xlink:href="#DejaVuSans-100"/>
      <use x="540.625" xlink:href="#DejaVuSans-119"/>
      <use x="622.412109" xlink:href="#DejaVuSans-105"/>
      <use x="650.195312" xlink:href="#DejaVuSans-100"/>
      <use x="713.671875" xlink:href="#DejaVuSans-116"/>
      <use x="752.880859" xlink:href="#DejaVuSans-104"/>
     </g>
    </g>
    <g id="line2d_33">
     <path d="M 249.517188 50.094687 
L 269.517188 50.094687 
" style="fill:none;stroke:#ff7f0e;stroke-linecap:square;stroke-opacity:0.7;stroke-width:1.5;"/>
    </g>
    <g id="line2d_34"/>
    <g id="text_19">
     <!-- output bandwidth -->
     <g transform="translate(277.517188 53.594687)scale(0.1 -0.1)">
      <defs>
       <path d="M 30.609375 48.390625 
Q 23.390625 48.390625 19.1875 42.75 
Q 14.984375 37.109375 14.984375 27.296875 
Q 14.984375 17.484375 19.15625 11.84375 
Q 23.34375 6.203125 30.609375 6.203125 
Q 37.796875 6.203125 41.984375 11.859375 
Q 46.1875 17.53125 46.1875 27.296875 
Q 46.1875 37.015625 41.984375 42.703125 
Q 37.796875 48.390625 30.609375 48.390625 
z
M 30.609375 56 
Q 42.328125 56 49.015625 48.375 
Q 55.71875 40.765625 55.71875 27.296875 
Q 55.71875 13.875 49.015625 6.21875 
Q 42.328125 -1.421875 30.609375 -1.421875 
Q 18.84375 -1.421875 12.171875 6.21875 
Q 5.515625 13.875 5.515625 27.296875 
Q 5.515625 40.765625 12.171875 48.375 
Q 18.84375 56 30.609375 56 
z
" id="DejaVuSans-111"/>
      </defs>
      <use xlink:href="#DejaVuSans-111"/>
      <use x="61.181641" xlink:href="#DejaVuSans-117"/>
      <use x="124.560547" xlink:href="#DejaVuSans-116"/>
      <use x="163.769531" xlink:href="#DejaVuSans-112"/>
      <use x="227.246094" xlink:href="#DejaVuSans-117"/>
      <use x="290.625" xlink:href="#DejaVuSans-116"/>
      <use x="329.833984" xlink:href="#DejaVuSans-32"/>
      <use x="361.621094" xlink:href="#DejaVuSans-98"/>
      <use x="425.097656" xlink:href="#DejaVuSans-97"/>
      <use x="486.376953" xlink:href="#DejaVuSans-110"/>
      <use x="549.755859" xlink:href="#DejaVuSans-100"/>
      <use x="613.232422" xlink:href="#DejaVuSans-119"/>
      <use x="695.019531" xlink:href="#DejaVuSans-105"/>
      <use x="722.802734" xlink:href="#DejaVuSans-100"/>
      <use x="786.279297" xlink:href="#DejaVuSans-116"/>
      <use x="825.488281" xlink:href="#DejaVuSans-104"/>
     </g>
    </g>
   </g>
  </g>
 </g>
 <defs>
  <clipPath id="p7339af1ce6">
   <rect height="217.44" width="334.8" x="40.603125" y="22.318125"/>
  </clipPath>
 </defs>
</svg>
